<svg xmlns="http://www.w3.org/2000/svg" width="24.943" height="24.943" viewBox="0 0 24.943 24.943">
  <g id="fabicon" transform="translate(15 -289.17)">
    <path id="Path_417" data-name="Path 417" d="M0,50.238l5.878,5.88,5.88-5.88L5.878,44.36Zm5.878,4.277L1.6,50.238l4.275-4.277L7.617,47.7l-3.5,3.5.8.8,3.5-3.5,1.737,1.737Z" transform="translate(-15 251.421)" fill="#231f20"/>
    <path id="Path_418" data-name="Path 418" d="M30.19,20.046l5.871,5.882,5.887-5.882L36.061,14.17Zm5.871,4.279-4.27-4.279,4.27-4.275,1.752,1.739-3.5,3.5.8.8,3.5-3.5,1.73,1.734Z" transform="translate(-38.579 275)" fill="#231f20"/>
    <path id="Path_419" data-name="Path 419" d="M30,80.258l5.878,5.88,5.88-5.88L35.882,74.38Zm5.878,4.277-4.273-4.277,4.277-4.277,1.739,1.739-3.5,3.5.8.8,3.5-3.5,1.737,1.737Z" transform="translate(-38.43 227.976)" fill="#231f20"/>
    <path id="Path_420" data-name="Path 420" d="M60.21,50.061l5.878,5.887,5.88-5.887-5.88-5.871Zm5.878,4.284-4.277-4.284,4.277-4.27,1.741,1.739-3.5,3.5.8.8,3.5-3.5,1.737,1.73Z" transform="translate(-62.024 251.554)" fill="#231f20"/>
  </g>
</svg>
