<svg id="logo" xmlns="http://www.w3.org/2000/svg" width="329.876" height="75.012" viewBox="0 0 329.876 75.012">
  <g id="Layer_1" data-name="Layer 1">
    <rect id="Rectangle_758" data-name="Rectangle 758" width="1.309" height="75.012" transform="translate(75.591)" fill="#231f20"/>
    <path id="Path_708" data-name="Path 708" d="M0,58.879,14.519,73.4,29.043,58.879,14.519,44.36ZM14.519,69.443,3.96,58.879,14.519,48.314l4.3,4.3-8.655,8.655,1.98,1.98,8.655-8.655,4.29,4.29Z" transform="translate(0 -20.364)" fill="#231f20"/>
    <path id="Path_709" data-name="Path 709" d="M30.19,28.683l14.5,14.53,14.54-14.53L44.693,14.17Zm14.5,10.57L34.144,28.683,44.693,18.124l4.328,4.3-8.655,8.655,1.98,1.98L51,24.4l4.273,4.284Z" transform="translate(-13.859 -6.505)" fill="#231f20"/>
    <path id="Path_710" data-name="Path 710" d="M30,88.9l14.519,14.524L59.043,88.9,44.53,74.38ZM44.519,99.463,33.965,88.9,44.53,78.334l4.3,4.3L40.17,91.284l1.974,1.98L50.8,84.609l4.29,4.29Z" transform="translate(-13.772 -34.145)" fill="#231f20"/>
    <path id="Path_711" data-name="Path 711" d="M60.21,58.693l14.519,14.54,14.524-14.54L74.729,44.19ZM74.729,69.273,64.164,58.693,74.729,48.144l4.3,4.3-8.655,8.655,1.974,1.98L81,54.419l4.29,4.273Z" transform="translate(-27.64 -20.286)" fill="#231f20"/>
    <path id="Path_712" data-name="Path 712" d="M183.724,116.442v-.206c.389,0,.465,0,.6-.1a.314.314,0,0,0,.151-.26,2.277,2.277,0,0,0-.206-.757l-.444-1.017h-2.84l-.5,1.233a1.428,1.428,0,0,0-.1.454c0,.335.238.444.757.444v.206H178.98v-.206c.627-.065.725-.292,1.363-1.807l2.234-5.28h.216l2.688,6.091c.3.7.454.93,1.017,1v.206Zm-1.314-5.75-1.244,2.975h2.5Z" transform="translate(-82.163 -50.106)" fill="#231f20"/>
    <path id="Path_713" data-name="Path 713" d="M204.4,111.225c-.238-1.19-.541-1.385-1.666-1.385H202.1v5.507c0,.822.151.952,1.039,1v.206H199.97v-.206c.9-.054,1.022-.173,1.022-1.125V109.84h-.622c-1.152,0-1.444.195-1.661,1.385h-.26l.076-1.845h6.086l.076,1.845Z" transform="translate(-91.101 -50.212)" fill="#231f20"/>
    <path id="Path_714" data-name="Path 714" d="M222.6,111.225c-.238-1.19-.541-1.385-1.666-1.385h-.638v5.507c0,.822.151.952,1.039,1v.206h-3.159v-.206c.9-.054,1.012-.173,1.012-1.125V109.84h-.649c-1.147,0-1.439.195-1.655,1.385h-.26l.076-1.845h6.08l.076,1.845Z" transform="translate(-99.442 -50.212)" fill="#231f20"/>
    <path id="Path_715" data-name="Path 715" d="M238.623,116.557a3.479,3.479,0,0,1-3.543-3.787,3.4,3.4,0,0,1,3.543-3.7,3.749,3.749,0,0,1,0,7.487Zm1.32-6.567a2.012,2.012,0,0,0-2.883.216,4.268,4.268,0,0,0-.746,2.607,3.761,3.761,0,0,0,.974,2.867,2.12,2.12,0,0,0,2.743-.032,3.981,3.981,0,0,0,.9-2.889A3.522,3.522,0,0,0,239.943,109.99Z" transform="translate(-107.916 -50.07)" fill="#231f20"/>
    <path id="Path_716" data-name="Path 716" d="M260.371,116.524l-2.6-3.332h-.606v2.1c0,.822.13.952.963,1.006v.206H255.14V116.3c.811-.065.92-.184.92-1.136v-4.62c0-.8-.087-.936-.92-1v-.211h2.943a3.592,3.592,0,0,1,2.267.644,1.715,1.715,0,0,1,.541,1.3c0,.941-.606,1.569-1.964,1.774l2.164,2.737a1.174,1.174,0,0,0,1.017.508v.206Zm-3.186-3.711a3.635,3.635,0,0,0,1.92-.368,1.374,1.374,0,0,0,.617-1.233c0-.974-.638-1.45-1.98-1.45-.373,0-.541.076-.541.454Z" transform="translate(-117.125 -50.189)" fill="#231f20"/>
    <path id="Path_717" data-name="Path 717" d="M281.944,109.563c-.411.038-.573.076-.714.195s-.314.422-.314,1.277v5.6h-.195l-4.776-5.95v4.2c0,1.114.173,1.3,1.006,1.417v.206H274.42V116.3c.887-.1,1.049-.26,1.049-1.417v-4.76a1.116,1.116,0,0,0-1.049-.573v-.211h1.839l4.181,5.231v-3.678a1.655,1.655,0,0,0-.206-1.082c-.184-.206-.379-.227-.855-.281v-.211h2.564Z" transform="translate(-125.975 -50.185)" fill="#231f20"/>
    <path id="Path_718" data-name="Path 718" d="M300.7,116.547H294.86v-.206c.833-.054.941-.195.941-1.028V110.6c0-.8-.13-.968-.941-1.006v-.211H300.6l.038,1.552h-.292c-.162-.974-.411-1.136-1.666-1.136h-1.417c-.3,0-.379.043-.379.389v2.38h1.623c.93,0,1.082-.184,1.223-1.039h.249v2.515h-.249c-.13-.909-.292-1.049-1.223-1.049h-1.623v2.672c0,.454.292.508,1.082.508h.389c1.547,0,2.018-.281,2.5-1.428h.3Z" transform="translate(-135.359 -50.212)" fill="#231f20"/>
    <path id="Path_719" data-name="Path 719" d="M320.63,109.582c-.638.054-.887.281-1.493,1.212l-1.623,2.467v2.077c0,.844.206.952,1.114,1v.206h-3.311v-.206c.963-.065,1.082-.162,1.082-1.125v-1.85l-1.417-2.077c-1-1.461-1.233-1.677-1.753-1.7v-.211h3.018v.211h-.26c-.346,0-.508.108-.508.281a1,1,0,0,0,.195.508l1.579,2.391,1.569-2.4a.877.877,0,0,0,.157-.454c0-.238-.179-.325-.741-.335v-.211H320.6Z" transform="translate(-143.792 -50.203)" fill="#231f20"/>
    <path id="Path_720" data-name="Path 720" d="M337.628,111.412a2.8,2.8,0,0,0-.444-1.017,2.007,2.007,0,0,0-1.569-.849,1.011,1.011,0,0,0-1.082,1.033c0,.736.8,1.19,1.937,1.85s1.677,1.3,1.677,2.12a2.039,2.039,0,0,1-2.207,2.023,3.159,3.159,0,0,1-1.277-.249,1.39,1.39,0,0,0-.508-.119.319.319,0,0,0-.3.357h-.238l-.314-2.294h.238c.5,1.309,1.2,1.915,2.229,1.915a1.2,1.2,0,0,0,1.287-1.212,1.168,1.168,0,0,0-.314-.855,7.573,7.573,0,0,0-1.818-1.255A2.121,2.121,0,0,1,333.6,111a1.79,1.79,0,0,1,1.882-1.893,2.51,2.51,0,0,1,1.136.238,1.315,1.315,0,0,0,.476.13c.184,0,.3-.13.346-.368h.227l.238,2.3Z" transform="translate(-153.005 -50.086)" fill="#231f20"/>
    <path id="Path_721" data-name="Path 721" d="M365.559,116.442v-.206c.389,0,.471,0,.6-.1a.324.324,0,0,0,.146-.26,2.277,2.277,0,0,0-.206-.757l-.444-1.017h-2.835l-.5,1.233a1.43,1.43,0,0,0-.1.454c0,.335.238.444.757.444v.206H360.82v-.206c.628-.065.725-.292,1.363-1.807l2.229-5.28h.216l2.667,6.091c.3.7.454.93,1.017,1v.206Zm-1.309-5.75-1.244,2.975h2.5Z" transform="translate(-165.638 -50.106)" fill="#231f20"/>
    <path id="Path_722" data-name="Path 722" d="M386.212,111.225c-.238-1.19-.541-1.385-1.666-1.385H383.9v5.507c0,.822.151.952,1.039,1v.206h-3.148v-.206c.9-.054,1.017-.173,1.017-1.125V109.84h-.649c-1.147,0-1.439.195-1.655,1.385h-.26l.076-1.845h6.08l.076,1.845Z" transform="translate(-174.553 -50.212)" fill="#231f20"/>
    <path id="Path_723" data-name="Path 723" d="M415.181,116.547H409.36v-.206c.8-.043.941-.216.941-1.039V110.64c0-.833-.1-.99-.941-1.049v-.211h3.051v.211c-.887.054-1.017.195-1.017,1.028v5.047c0,.411.184.487.974.487h.757a2.169,2.169,0,0,0,1.834-.66,4.373,4.373,0,0,0,.454-.8h.281Z" transform="translate(-187.921 -50.212)" fill="#231f20"/>
    <path id="Path_724" data-name="Path 724" d="M432.339,116.442v-.206c.389,0,.465,0,.6-.1a.314.314,0,0,0,.151-.26,2.277,2.277,0,0,0-.206-.757l-.444-1.017H429.6l-.5,1.233a1.428,1.428,0,0,0-.1.454c0,.335.238.444.757.444v.206H427.6v-.206c.627-.065.725-.292,1.363-1.807l2.229-5.28h.216l2.661,6.091c.3.7.454.93,1.017,1v.206Zm-1.309-5.75-1.244,2.975h2.5Z" transform="translate(-196.294 -50.106)" fill="#231f20"/>
    <path id="Path_725" data-name="Path 725" d="M456.234,109.591c-.573.108-.692.195-.9.757-1.179,3.181-1.287,3.494-2.212,6.318h-.162c-.541-1.536-1.168-3.137-1.731-4.576l-1.666,4.576H449.4c-.66-1.947-1.439-3.96-2.077-5.777-.357-1.028-.573-1.287-1.125-1.3v-.211h2.64v.211c-.541,0-.692.108-.692.335a1.589,1.589,0,0,0,.119.508l1.558,4.068,1.125-3.062-.3-.811c-.357-.957-.487-1.028-1.082-1.039v-.211h2.867v.211c-.541,0-.833.151-.833.379a2.563,2.563,0,0,0,.184.627l1.552,3.938,1.363-3.668a2.6,2.6,0,0,0,.184-.833c0-.292-.206-.433-.757-.444v-.211h2.131Z" transform="translate(-204.833 -50.212)" fill="#231f20"/>
    <path id="Path_726" data-name="Path 726" d="M187.685,21.083a4.593,4.593,0,0,1,2.7,1.223,3.413,3.413,0,0,1,1.082,2.548c0,2.461-2.083,3.949-5.3,3.949H178.7V28.38c1.753-.043,2.131-.4,2.131-2.083v-9.7c0-1.753-.33-1.953-2.131-2.066V14.11h6.21c3.841,0,5.815,1.352,5.815,3.7a3.181,3.181,0,0,1-.914,2.31,4.364,4.364,0,0,1-2.126.93Zm-2.553-.4c2.245,0,3.327-.909,3.327-2.748s-1.282-3-3.922-3h-.909c-.379,0-.541.2-.541.709v5.036Zm-2.039,6.3c0,.752.357,1,1.374,1,1.866,0,2.64-.087,3.619-.952a2.818,2.818,0,0,0,.844-2.2,2.629,2.629,0,0,0-1.044-2.375c-1.331-.887-2.164-.8-4.793-.887Z" transform="translate(-82.034 -6.477)" fill="#231f20"/>
    <path id="Path_727" data-name="Path 727" d="M226,28.791H214.05v-.422c1.7-.114,1.926-.4,1.926-2.11V16.593c0-1.623-.265-1.974-1.926-2.066V14.11H225.8l.087,3.17h-.541c-.33-2-.838-2.331-3.413-2.331h-2.9c-.622,0-.779.092-.779.8v4.868H221.6c1.9,0,2.239-.379,2.5-2.131h.509v5.193H224.1c-.265-1.866-.6-2.164-2.5-2.164h-3.354v5.409c0,.936.6,1.044,2.245,1.044h.8c3.17,0,4.127-.573,5.123-2.926h.6Z" transform="translate(-98.262 -6.477)" fill="#231f20"/>
    <path id="Path_728" data-name="Path 728" d="M259.228,28.782H247.3V28.36c1.623-.092,1.926-.444,1.926-2.131V16.67c0-1.7-.2-2.018-1.926-2.164V14.09h6.275v.417c-1.818.114-2.083.4-2.083,2.11V26.894c0,.844.373,1,2,1h1.552c1.8,0,2.991-.4,3.743-1.352a8.266,8.266,0,0,0,.936-1.623h.573Z" transform="translate(-113.526 -6.468)" fill="#231f20"/>
    <path id="Path_729" data-name="Path 729" d="M290.513,17.867c-.487-2.44-1.082-2.84-3.413-2.84h-1.309V26.316c0,1.682.308,1.947,2.131,2.039v.422h-6.491v-.422c1.839-.114,2.083-.357,2.083-2.3V15.027h-1.331c-2.353,0-2.948.4-3.392,2.84h-.541l.157-3.787h12.442l.157,3.787Z" transform="translate(-127.734 -6.464)" fill="#231f20"/>
    <path id="Path_730" data-name="Path 730" d="M312.39,42.032c1.223-.822,1.845-1.623,1.845-2.375a.3.3,0,0,0-.314-.287c-.178,0-.4.087-.644.087-.817,0-1.287-.373-1.287-1.131a1.228,1.228,0,0,1,1.331-1.26,1.791,1.791,0,0,1,1.774,1.926,4.111,4.111,0,0,1-2.483,3.462Z" transform="translate(-143.222 -17.014)" fill="#231f20"/>
    <path id="Path_731" data-name="Path 731" d="M356.32,21.083a4.576,4.576,0,0,1,2.7,1.223,3.413,3.413,0,0,1,1.114,2.564c0,2.461-2.083,3.949-5.3,3.949h-7.5V28.4c1.747-.043,2.126-.4,2.126-2.083V16.593c0-1.753-.33-1.953-2.126-2.066V14.11h6.21c3.835,0,5.81,1.352,5.81,3.7a3.2,3.2,0,0,1-.909,2.31,4.387,4.387,0,0,1-2.131.93Zm-2.548-.4c2.24,0,3.327-.909,3.327-2.748s-1.287-3-3.927-3h-.909c-.379,0-.541.2-.541.709v5.036Zm-2.045,6.3c0,.752.357,1,1.379,1,1.861,0,2.634-.087,3.613-.952a2.818,2.818,0,0,0,.844-2.2,2.629,2.629,0,0,0-1.044-2.375c-1.331-.887-2.164-.8-4.793-.887Z" transform="translate(-159.45 -6.477)" fill="#231f20"/>
    <path id="Path_732" data-name="Path 732" d="M393.547,28.791l-5.274-6.832L387.029,22V26.33c0,1.682.265,1.947,1.974,2.061v.422H382.88v-.422c1.666-.135,1.888-.379,1.888-2.331V16.571c0-1.623-.178-1.91-1.888-2.045V14.11H388.9a7.436,7.436,0,0,1,4.636,1.3,3.505,3.505,0,0,1,1.082,2.667c0,1.926-1.239,3.213-4.014,3.635l4.436,5.61a2.412,2.412,0,0,0,2.088,1.044v.422Zm-6.518-7.611c2.131-.043,2.9-.195,3.927-.752a2.813,2.813,0,0,0,1.26-2.526c0-2-1.309-2.975-4.057-2.975-.752,0-1.131.157-1.131.93Z" transform="translate(-175.765 -6.477)" fill="#231f20"/>
    <path id="Path_733" data-name="Path 733" d="M432.1,14.527c-1.861.179-2.083.714-2.083,2.818V23c0,2.164-.2,3.348-1.2,4.479a5.564,5.564,0,0,1-4.479,1.623,6.174,6.174,0,0,1-3.787-1.017c-1.217-.909-1.8-2.467-1.8-4.814V16.393c0-1.488-.243-1.731-2-1.866V14.11h6.275v.417c-1.774.157-2.018.422-2.018,2.088v6.919c0,1.731.092,2.7.979,3.592a3.922,3.922,0,0,0,2.851.99,4.441,4.441,0,0,0,3.4-1.3c.73-.887.817-1.774.817-3.57V17.415c0-2.288-.287-2.775-2.083-2.889V14.11h5.144Z" transform="translate(-191.318 -6.477)" fill="#231f20"/>
    <path id="Path_734" data-name="Path 734" d="M469.921,14.545c-.838.092-1.174.157-1.461.4-.422.379-.644.866-.644,2.618v11.49h-.4l-9.78-12.177v8.606c0,2.283.357,2.661,2.061,2.9v.422H454.51v-.422c1.818-.2,2.164-.541,2.164-2.9V15.746c-.736-.909-1.082-1.179-2.164-1.179V14.15H458.3l8.563,10.711V17.314a3.358,3.358,0,0,0-.422-2.164c-.33-.368-.779-.465-1.753-.579v-.417h5.236Z" transform="translate(-208.648 -6.496)" fill="#231f20"/>
    <path id="Path_735" data-name="Path 735" d="M504.265,28.791H492.31v-.422c1.709-.114,1.931-.4,1.931-2.11V16.593c0-1.623-.265-1.974-1.931-2.066V14.11h11.733l.108,3.186h-.541c-.335-2-.844-2.331-3.419-2.331h-2.9c-.617,0-.773.092-.773.8v4.868h3.348c1.91,0,2.24-.379,2.5-2.131h.514V23.7h-.514c-.265-1.866-.6-2.164-2.5-2.164h-3.348v5.409c0,.936.6,1.044,2.24,1.044h.8c3.17,0,4.122-.573,5.123-2.926h.622Z" transform="translate(-226 -6.477)" fill="#231f20"/>
    <path id="Path_736" data-name="Path 736" d="M536.437,28.791l-5.28-6.832L529.914,22V26.33c0,1.682.271,1.947,1.974,2.061v.422H525.77v-.422c1.661-.135,1.883-.379,1.883-2.331V16.571c0-1.623-.179-1.91-1.883-2.045V14.11H531.8a7.459,7.459,0,0,1,4.636,1.3,3.527,3.527,0,0,1,1.082,2.667c0,1.926-1.244,3.213-4.019,3.635l4.441,5.61a2.372,2.372,0,0,0,2.083,1.044v.422Zm-6.524-7.611c2.131-.043,2.9-.195,3.927-.752a2.808,2.808,0,0,0,1.25-2.526c0-2-1.309-2.975-4.062-2.975-.752,0-1.131.157-1.131.93Z" transform="translate(-241.36 -6.477)" fill="#231f20"/>
    <path id="Path_737" data-name="Path 737" d="M596.484,26.3a3.565,3.565,0,0,1-3.348,2.5c-1.287,0-2.375-.573-3.787-2.018a6.669,6.669,0,0,1-4.793,2.018c-2.375,0-3.787-1.109-3.787-3.327,0-1.8,1.217-3.527,3.484-4.836l.838-.487a7.865,7.865,0,0,1-.773-3.305,3.246,3.246,0,0,1,3.37-3.327,2.729,2.729,0,0,1,3.04,2.753c0,1.6-.844,2.613-3.44,3.722a17.061,17.061,0,0,0,2.937,4.6c1.444-1.91,2.045-2.97,2.045-3.992,0-.665-.335-.93-1.444-1.044V19.1h4.793v.465a2.134,2.134,0,0,0-2.088,1.309c-1.017,1.623-1.574,2.7-2.791,4.328,1.039,1.352,2.018,2.039,3.37,2.039a2.32,2.32,0,0,0,2.039-1.174ZM585.438,20.9c-1.931,1.244-2.618,2.223-2.618,3.749a2.7,2.7,0,0,0,2.748,2.975,5.227,5.227,0,0,0,3.246-1.423,21.223,21.223,0,0,1-3.375-5.285Zm2.4-6.675a1.7,1.7,0,0,0-1.753,1.845,5.772,5.772,0,0,0,.887,3.213c1.9-.865,2.591-1.8,2.591-3.1a1.8,1.8,0,0,0-1.726-1.937Z" transform="translate(-266.609 -6.209)" fill="#231f20"/>
    <path id="Path_738" data-name="Path 738" d="M187.685,62.272a4.593,4.593,0,0,1,2.7,1.223,3.413,3.413,0,0,1,1.082,2.548c0,2.461-2.083,3.949-5.3,3.949H178.7v-.422c1.753-.043,2.131-.4,2.131-2.083V57.793c0-1.753-.33-1.953-2.131-2.061V55.31h6.21c3.841,0,5.815,1.352,5.815,3.7a3.181,3.181,0,0,1-.914,2.31,4.364,4.364,0,0,1-2.126.93Zm-2.553-.4c2.245,0,3.327-.909,3.327-2.748s-1.282-3-3.922-3h-.909c-.379,0-.541.2-.541.709v5.036Zm-2.039,6.3c0,.752.357,1,1.374,1,1.866,0,2.64-.087,3.619-.952a2.818,2.818,0,0,0,.844-2.2,2.629,2.629,0,0,0-1.044-2.375c-1.331-.887-2.164-.8-4.793-.887Z" transform="translate(-82.034 -25.391)" fill="#231f20"/>
    <path id="Path_739" data-name="Path 739" d="M222.508,69.757v-.422c.8,0,.957-.043,1.223-.2a.633.633,0,0,0,.308-.541,4.528,4.528,0,0,0-.422-1.552l-.909-2.088H216.9l-1.022,2.532a2.986,2.986,0,0,0-.195.93c0,.687.487.909,1.553.909v.422H212.82v-.422c1.282-.135,1.482-.6,2.791-3.705L220.182,54.8h.444l5.453,12.5c.622,1.439.936,1.9,2.088,2.039v.422Zm-2.7-11.8-2.548,6.1h5.123Z" transform="translate(-97.697 -25.157)" fill="#231f20"/>
    <path id="Path_740" data-name="Path 740" d="M261.367,69.991l-5.28-6.832-1.239.043V67.53c0,1.682.265,1.947,1.969,2.061v.422H250.7v-.422c1.661-.135,1.882-.379,1.882-2.331V57.771c0-1.623-.173-1.91-1.882-2.039V55.31h6.031a7.436,7.436,0,0,1,4.636,1.3,3.527,3.527,0,0,1,1.082,2.667c0,1.926-1.244,3.213-4.014,3.635l4.436,5.61a2.4,2.4,0,0,0,2.083,1.044v.422Zm-6.518-7.611c2.126-.043,2.9-.195,3.922-.752a2.808,2.808,0,0,0,1.287-2.526c0-2-1.309-2.975-4.057-2.975-.757,0-1.131.157-1.131.936Z" transform="translate(-115.086 -25.391)" fill="#231f20"/>
    <path id="Path_741" data-name="Path 741" d="M301.438,55.741c-.844.087-1.179.151-1.466.395-.422.379-.644.866-.644,2.618v11.49h-.4l-9.78-12.177v8.606c0,2.283.357,2.661,2.061,2.9V70H286v-.422c1.818-.2,2.164-.541,2.164-2.9V56.937A2.274,2.274,0,0,0,286,55.763v-.422h3.787l8.563,10.711V58.489a3.358,3.358,0,0,0-.422-2.164c-.33-.368-.779-.465-1.753-.573V55.33h5.258Z" transform="translate(-131.291 -25.4)" fill="#231f20"/>
    <path id="Path_742" data-name="Path 742" d="M335.795,69.991H323.84v-.422c1.709-.114,1.931-.4,1.931-2.11V57.793c0-1.623-.265-1.974-1.931-2.061V55.31h11.755l.092,3.17h-.541c-.33-2-.844-2.331-3.413-2.331H328.8c-.622,0-.779.092-.779.8v4.868h3.348c1.91,0,2.24-.379,2.51-2.131h.508v5.193h-.508c-.27-1.866-.6-2.164-2.51-2.164h-3.348v5.409c0,.936.6,1.044,2.239,1.044h.8c3.17,0,4.122-.573,5.123-2.926h.622Z" transform="translate(-148.662 -25.391)" fill="#231f20"/>
    <path id="Path_743" data-name="Path 743" d="M369.519,59.053c-.487-2.44-1.082-2.84-3.413-2.84H364.8V67.5c0,1.682.308,1.953,2.126,2.039v.422h-6.491v-.422c1.839-.114,2.083-.357,2.083-2.3V56.2h-1.331c-2.348,0-2.948.4-3.392,2.84h-.541l.151-3.787H369.87l.151,3.787Z" transform="translate(-163.999 -25.363)" fill="#231f20"/>
    <path id="Path_744" data-name="Path 744" d="M402.768,59.053c-.487-2.44-1.082-2.84-3.413-2.84h-1.309V67.5c0,1.682.308,1.953,2.126,2.039v.422h-6.491v-.422c1.839-.114,2.088-.357,2.088-2.3V56.2h-1.331c-2.353,0-2.954.4-3.4,2.84H390.5l.157-3.787H403.1l.151,3.787Z" transform="translate(-179.263 -25.363)" fill="#231f20"/>
    <path id="Path_745" data-name="Path 745" d="M447.955,55.31a7.28,7.28,0,0,1,4.809,1.4,3.316,3.316,0,0,1,1.114,2.64,3.787,3.787,0,0,1-1.266,2.9c-1.287,1.152-2.375,1.352-4.749,1.352a12.293,12.293,0,0,1-1.531-.065v3.97c0,1.682.292,1.974,2.088,2.061v.422h-6.21v-.422c1.731-.135,1.861-.379,1.861-2.283V57.771c0-1.623-.222-1.91-1.861-2.039V55.31Zm-1.623,7.341c.514.043.914.065,1.358.065,2.44,0,3.787-1.266,3.787-3.246,0-2.44-1.331-3.327-4.327-3.327-.644,0-.779.2-.779.8Z" transform="translate(-203.001 -25.391)" fill="#231f20"/>
    <path id="Path_746" data-name="Path 746" d="M487.153,67.218a7.068,7.068,0,0,1-6.053,2.813,7.5,7.5,0,0,1-5.236-1.974,7.757,7.757,0,0,1-2.126-5.545,8,8,0,0,1,2-5.474,7.032,7.032,0,0,1,5.409-2.31,9.927,9.927,0,0,1,2.64.335,8.043,8.043,0,0,0,1.531.4.963.963,0,0,0,.93-.736h.444l.173,5.015h-.508a4.944,4.944,0,0,0-4.728-4.149c-3.348,0-5.323,2.7-5.323,6.545,0,2.44.541,4.165,1.623,5.3a5.366,5.366,0,0,0,3.943,1.623c2,0,3.219-.665,4.868-2.239Z" transform="translate(-217.473 -25.122)" fill="#231f20"/>
  </g>
</svg>
